<svg xmlns="http://www.w3.org/2000/svg" viewBox="0 0 48 48" role="img" aria-label="/dog">
  <polygon points="18.5,28 24,30 21.5,47 17.5,43 13.5,46" fill="#be185d" opacity="0.92"></polygon>
  <polygon points="29.5,28 24,30 26.5,47 30.5,43 34.5,46" fill="#be185d" opacity="0.92"></polygon>
  <circle cx="24.00" cy="4.80" r="3.1" fill="#0f766e"></circle>
  <circle cx="31.60" cy="6.84" r="3.1" fill="#0f766e"></circle>
  <circle cx="37.16" cy="12.40" r="3.1" fill="#0f766e"></circle>
  <circle cx="39.20" cy="20.00" r="3.1" fill="#0f766e"></circle>
  <circle cx="37.16" cy="27.60" r="3.1" fill="#0f766e"></circle>
  <circle cx="31.60" cy="33.16" r="3.1" fill="#0f766e"></circle>
  <circle cx="24.00" cy="35.20" r="3.1" fill="#0f766e"></circle>
  <circle cx="16.40" cy="33.16" r="3.1" fill="#0f766e"></circle>
  <circle cx="10.84" cy="27.60" r="3.1" fill="#0f766e"></circle>
  <circle cx="8.80" cy="20.00" r="3.1" fill="#0f766e"></circle>
  <circle cx="10.84" cy="12.40" r="3.1" fill="#0f766e"></circle>
  <circle cx="16.40" cy="6.84" r="3.1" fill="#0f766e"></circle>
  <circle cx="24" cy="20" r="11.6" fill="#0f766e"></circle>
  <circle cx="24" cy="20" r="8.4" fill="none" stroke="rgba(255,255,255,0.55)" stroke-width="1.4"></circle>
  <circle cx="24" cy="20" r="4.6" fill="#be185d"></circle>
  <circle cx="24" cy="20" r="1.9" fill="#ffffff"></circle>
</svg>